<svg xmlns="http://www.w3.org/2000/svg" viewBox="0 0 1000 1000" xmlns:v="https://vecta.io/nano"><path d="M0 1000V0h1000v1000H0zm53.9-191.04h892.07V53.7H53.9v755.26zm269.63-480.15v214.65h-73.19V102.11h73l65.58 211.46.95-.05V102.04h73.8v441.47h-78.82l-60.21-214.85-1.11.15zm565.35 214.71h-86.03l-12.95-56.11h-49.64c-4.96 18.43-5.55 37.49-10.48 56.22h-84.02l74.64-441.68h93.82l74.66 441.57zM764.37 254.53c-.2.02-.41.03-.61.05l-15.72 128.51h30.42l-14.09-128.56zM113.8 765.23v-62.42h788.12c2.21 10.53.79 20.93 1.04 31.23.25 10.17.06 20.35.06 31.19H113.8zm.13-190.89h788.3v62.25h-788.3v-62.25zm379.39-472.5h168.71v145.84c-13.89 2.58-27.99-.33-43.19 1.9v293.97h-80.09V253.72c-15.81-2.5-30.64.43-45.42-1.89l-.01-149.99zm-365.56.17h74.01v440.46c-5.78 2.18-65.23 2.69-74.01.65V102.01z"/></svg>